<svg version="1.2" xmlns="http://www.w3.org/2000/svg" viewBox="0 0 2500 2000" width="2500" height="2000">
	<style>
		.s0 { fill: #ff5f76 } 
		.s1 { fill: #ff385e } 
		.s2 { fill: #ffffff } 
		.s3 { fill: #231f20 } 
	</style>
	<g id="_Artboards_">
	</g>
	<g id="Layer 1">
		<g id="&lt;Group&gt;">
			<path id="&lt;Compound Path&gt;" class="s0" d="m1991.03 1138.02c52.98-49.02 46.95-143.15-9.49-175.53 15.61-45.86-10.43-102.25-55.35-127.31-21.21-11.83 2.56-18.15 6.4-40.88 3.47-20.54 4.81-42.3 1.96-63.05-4.83-35.13-20.65-66.82-47.85-89.88-13.21-11.2-29.01-19.97-45.46-25.36-12.55-4.1-34.68-2.36-42.04-12.73-8.37-11.79-9.31-37.7-14.72-51.55-7.02-18-16.17-35.47-27.29-51.28-38.65-54.96-119.21-75.59-184.65-60.92-12.81-24.57-13.21-59.66-37.9-73.35-34.08-18.89-84.21-19.8-123.03-20.03-25.3-8.69-51.09 2.27-77.31 5.5-16.03-1.74-28.5-9.2-43.44-18.92-22.37-14.56-44.17-28.63-71.41-26.48-14.05-6.81-28.96-11.96-46.04-13.25-48.27-3.67-92.72 16.79-133.82 39.59-33 18.31-59.35 20.92-96.45 14.68-22.2-3.73-44.06-6.51-66.63-5.89-41.17 1.13-83.86 12.71-114.66 41.26-7.37 6.83-12.61 15.03-19.34 22.29-15.57 16.82-25.83 18.6-47.4 16.58-21.17-1.97-41.07-3.29-62.16 0.9-36.13 7.19-70.77 25.18-97.24 50.67-26.49 8.67-43.33 31.84-52.14 59.92-7.13 22.73-8.44 46.86-15.63 69.55-8.2 25.89-26.18 44.58-43.49 64.69-52.44 60.92-68.07 144.83-30.66 218.17 8.08 15.82 29.47 34.66 31.78 52.04 1.41 10.54-3.12 24.75-3.12 35.8 0 10.57 0.67 21.03 2.38 31.48 6.3 38.52 23.38 75.53 49.58 104.56 53.23 59 115.2 87.17 228.76 41.41 8.47 94.91 63.76 136.85 129.07 172.03 82.7 44.53 172.04 29.08 261.66 36.89 57.58 5.02 105.21 28.88 138.16 67.83q2.73 4.47 5.17 9.04c10.75 20.24 18.66 43.1 32.84 61.25 2.2 7.02 4.22 14.18 5.81 21.65 4.02 18.76 6.03 38.23 5.43 57.42-0.62 19.6-7.45 40.97-2 60.27 10.53 37.29 63.04 44.27 95.58 48.52 43.6 5.68 77.59-3.96 92.56-48.75 8.48-25.38-2.84-56.5-1.45-83.71 54.54 12.61 131.02 9.34 183.81-4.18 61.61-15.79 119.55-42.22 149.87-99.4 1.55-2.93 4.95-10.15 4.74-12.65 2.53-7.07 22.83-34.85 23.73-42.7 43.38-5.67 63.54-6.23 97.25-35.58 27.49-23.93 55.84-77.95 52.19-113.86 34.52-14.34 30.37-17.73 37.16-55.35 5.26-29.12-0.98-39.5-23.72-51.4z"/>
			<path id="&lt;Compound Path&gt;" class="s1" d="m2005.09 1157.9c-3.96-11.24-11.33-20.38-19.96-28.39-6.23-5.78-14.07-10.21-19.91-16.37-10.38-10.95-11.85-22.03-17.52-35.02-10.84-24.85-29.56-34.12-53.99-42.39-14.64-4.95-23.19-7.95-32.83-20.65-8.61-11.35-13.36-22.87-28.27-26.75-30.85-8.03-47.82 35.01-77.55 9.2-28.09-24.36-32.68-82.87-41.51-117.15-15.4-59.79-22.55-157.44-91.96-180.9-23.43-7.92-45.26-1.57-65.39 11.02-13.46 8.42-27.94 23.54-45.51 18.08-15.63-4.86-26.34-24.19-37.28-35.3-17.29-17.54-42.01-32.58-67.55-26.15-29.35 7.39-32.99 36.78-44.26 60.18-17.68 36.71-56.2 71.57-98.81 54.55-27.56-11.01-56.76-28.26-83.25-4.15-21.48 19.55-22.89 76.91-64.56 55.77-26.53-13.46-26.53-51.51-57.12-62.1-26.27-9.1-52.17 8.15-65.04 30.39-17.73 30.63-11.75 72.93-51.33 86.53-78.93 27.11-80.04-86.04-124.43-121.92-8.8-7.11-20.24-4.19-27.43 3.37-11.41 12-17.47 25.79-21.51 41.65-4.47 17.58-4.26 41.67-16.28 56.06-26.89 32.21-96.85-9.11-125.71-21.84-86.08-37.98-172.14-100.28-173.18-203.93-0.12-11.92-17.98-10.82-19.99-0.12-0.57 3.04-0.99 6.05-1.39 9.04-2.4 0.83-4.72 2.24-6.76 4.55-41.3 46.6-59.36 110.97-47.1 172.33 6.84 34.25 27.13 61.21 38.14 93.64 12.03 35.43 6.1 74.57 16.72 110.81 33.15 112.98 164.92 184.23 267.43 117.29 25.71 53.26 54.97 106.7 103.45 142.29 56.27 41.3 131.16 57.91 199.64 63.02 36.88 2.75 74.36-4.32 110.92 0.2 39.15 4.83 72.42 28.43 96.43 58.82 39.54 50.03 46.09 109.33 63.66 168.31 13.86 46.56 44.18 96.22 99.01 95.82 49.2-0.36 95.09-42.23 94.89-92.38-0.04-11.61-5.44-23.46-4.8-34.8 1.07-19.06 7.99-16.49 24.59-13.93 6.25 0.96 14.7 5.22 20.34 7.18 34.23 11.95 69.51 23.6 106.28 21.48 58.51-3.37 121.94-43.41 157.6-85.63 19.93-23.61 44.28-82.24 49.02-83.82 19.52-6.5 48.56-9.49 76.56-23.54 21.57-10.83 41.21-24.63 53.65-45.82 8.76-14.92 11.55-31.33 17.04-47.49 6.07-17.87 15.89-33.62 24.48-50.32 11.12-21.6 20.88-46.46 12.33-70.72z"/>
			<path id="&lt;Path&gt;" class="s2" d="m1480.83 387.79c-7.39-1.32-15.02 5.99-13.65 13.49 2.74 14.98 11 28.3 13.98 43.22 3.08 15.45 0.11 31.27 2.9 46.62 1.78 9.84 12.17 14.28 20.51 8.8 38.18-25.07 20.57-104.19-23.74-112.13z"/>
			<path id="&lt;Path&gt;" class="s2" d="m1466.73 523.67c-2.94 3.57-6.59 6.39-10.27 9.18-3.65 2.78-7.24 5.91-11.39 7.93-8.5 4.15-6.11 18.65 4.32 16.91 7.79-1.29 15.23-3.97 20.83-9.74 5.2-5.35 7.89-11.58 9.64-18.75 1.84-7.51-8.83-10.75-13.13-5.53z"/>
			<path id="&lt;Path&gt;" class="s2" d="m569.94 499.78c-12.28-0.19-20.66-0.27-29.59 9.48-8.26 9.01-10.49 20.18-9.18 32.09 0.83 7.54 12.18 11.64 16.68 4.62 4.16-6.51 9.49-12.3 13.96-18.61 2.46-3.47 5.24-6.7 6.73-10.77 1.31-3.58 1.73-7.01 4.09-10.19 1.67-2.26 0.6-6.56-2.69-6.62z"/>
			<path id="&lt;Path&gt;" class="s2" d="m1878.43 840.8c-4.41-13.98-15.81-31.43-32.08-32.06-8.46-0.32-18.02 6.09-16.08 15.89 1.99 10.01 9.04 17.46 12.07 27.1 2.63 8.39 5.06 18.52 5.85 27.29 1 11.03 14.88 13.39 21.48 5.96 11.56-13.01 13.97-27.63 8.76-44.18z"/>
			<path id="&lt;Path&gt;" class="s2" d="m1867.05 918.54c-1.68-8.36-10.87-13.19-18.26-7.83-2.39 1.73-4.25 4-5.87 6.46q-1.1 1.82-2.14 3.67c-0.18 0.31-0.22 0.39-0.27 0.48-0.57 0.9-1.19 1.78-1.76 2.69-2.53 4.02-3.7 7.99-7.73 11.57-3.58 3.19-5.14 8.03-2.6 12.41 2.27 3.92 7.51 6.39 11.92 4.31 6.47-3.05 13.54-6.4 18.41-11.74 5.07-5.57 9.87-14.28 8.3-22.02z"/>
			<g id="&lt;Group&gt;">
				<path id="&lt;Path&gt;" class="s3" d="m1811.13 1404.5c-20.41 47.23-54.44 87.99-97.72 115.93-46.3 29.89-101.33 43.27-156.22 39.36-32.6-2.32-64.74-10.95-94.08-25.34-10.41-5.1-19.29 9.58-9.17 15.69-0.67-0.41-1.55-1.22-1.84-1.94 0.02 0.07 0.51 0.76 0.47 0.79 0.03-0.03-0.17-0.75 0.31 0.97 0.58 2.12 1.03 4.5 1.28 6.45 0.9 6.98 0.97 14.1 0.99 21.12 0.05 15.1-0.69 30.25-2.12 45.28-2.57 27.06-17.96 66.49-53.43 62.36-27.06-3.15-59.67-7.1-86.68-16.81-12.55-4.51-17.2-18.25-19.56-31.05-3.37-18.26-2.41-37.1-3.25-55.56-0.91-19.85-5.66-39.02-11.43-57.97-6.76-22.17-15.46-43.86-26.26-64.37-20.56-39.05-50.64-77.04-90.17-98.2-17.8-9.53-37.34-13.87-57.48-13.81-22.77 0.06-45.41 3.83-68.24 4.04-49.09 0.45-98.44-5.62-145.84-18.45-43.56-11.8-87.18-29.31-120.22-61-26.42-25.34-43.34-57.93-51.2-93.51q-2.84-12.93-4.23-26.09c-1.23-11.51-19.41-11.63-18.17 0 4.08 38.18 15.51 75.65 38.48 106.87 27.1 36.85 65.71 61.23 107.97 77.45 48.06 18.45 99.62 28.1 150.87 31.61 24.79 1.7 49.73 1.83 74.51-0.06 22.26-1.69 44.26-5.16 66.15 1.16 21.43 6.2 40.05 20.46 55.79 35.85 17.36 16.97 31.54 36.79 43.24 58.01 21.1 38.27 37.16 82.86 38.35 126.84 0.85 31.16-2.33 80.6 33.06 94.7 15.23 6.06 32 8.77 48.08 11.58 15.08 2.63 30.24 4.92 45.43 6.83 39.81 4.99 65.7-33.07 70.99-68.52 2.13-14.23 2.87-28.75 3.32-43.12 0.45-14.6 1.18-30.36-2.26-44.69-1.17-4.89-3.26-9.75-7.74-12.45q-4.58 7.84-9.17 15.69c55.18 27.05 118.33 35.07 178.56 22.76 55.01-11.24 105.59-40.56 143.65-81.71 21.09-22.81 38.35-49.01 50.67-77.52 4.59-10.62-11.06-19.88-15.69-9.17z"/>
				<path id="&lt;Path&gt;" class="s3" d="m1116.93 1359.89c98.79-29.08 201.38-17.04 301.34-1.35 46.18 7.25 92.63 13.35 138.59 21.82 43.09 7.95 86 16.99 129.53 22.26 47.17 5.72 96.25 7.1 142.2-6.79 11.16-3.37 6.4-20.91-4.83-17.51-40.36 12.19-83.13 11.78-124.71 7.55-43.81-4.45-86.96-13.58-130.18-21.69-45.48-8.52-91.4-14.55-137.09-21.78-49.64-7.86-99.48-15.41-149.73-17.9-57.22-2.84-114.82 1.65-169.94 17.87-11.19 3.29-6.43 20.83 4.82 17.52z"/>
				<path id="&lt;Path&gt;" class="s3" d="m1225.99 1338.7c3.17 32.4 25.31 60.16 56.64 69.62q-2.71-6.67-5.42-13.34c-22.58 43.96-1.06 98.25 46.46 113.28 5.48 1.73 11.08 2.6 16.78 3.23 4.94 0.54 10.47 0.54 14.6 3.71 4.67 3.58 7.76 9.47 12.12 13.51 3.78 3.51 7.97 6.7 12.35 9.4 19.07 11.76 42.83 14.96 64.29 8.67 11.2-3.28 6.43-20.82-4.83-17.52-17.74 5.2-36.73 2.21-52.14-8.02-8.38-5.56-13.07-14.24-20.75-20.36-7.81-6.22-17.19-6.46-26.67-7.68-41.91-5.39-65.75-51.63-46.53-89.05 2.71-5.28 0.41-11.58-5.43-13.34-23.04-6.97-40.94-27.98-43.31-52.11-1.12-11.53-19.3-11.65-18.16 0z"/>
				<path id="&lt;Path&gt;" class="s3" d="m717.95 1133c-3.42-61.28 6.57-134.48 66.48-166.55 12.83-6.87 26.11-9.5 40.5-10.4 7.52-0.47 14.89-1.38 21.75-4.7 7.12-3.44 12.89-9.11 18.82-14.23 21.2-18.31 47.43-29.89 74.87-34.99 27.34-5.07 56.07-3.02 82.41 5.85 14.31 4.82 26.19 13.36 39.85 19.35 15.17 6.66 28.39 1.58 40.19-8.9 24.69-21.94 48.99-42.84 79.02-57.32 28.27-13.64 59.68-20.42 91.05-17.2 16.63 1.71 33.18 6.61 47.79 14.76 14.99 8.35 28.62 22.42 46.15 10.65 7.07-4.75 13.07-11.35 19.55-16.86 6.9-5.87 14.07-11.4 21.74-16.24 15.09-9.5 32.23-16.06 50.16-11.78 5.84 1.39 11.33-2.73 11.5-8.76 0.97-34.14 27.21-63.77 60.5-70.11 11.47-2.19 6.61-19.7-4.83-17.52-41.26 7.86-72.65 45.91-73.84 87.63q5.75-4.38 11.5-8.76c-33.7-8.03-63.84 10.97-88.6 31.87-5.63 4.75-10.81 10.64-16.84 14.85-7.92 5.51-14.99-2.72-21.64-6.97-13.05-8.34-27.83-14.26-42.92-17.69-66.38-15.09-130.73 14.54-180.8 56.52-6.21 5.21-12.22 10.66-18.14 16.21-5.08 4.76-11.11 11.42-18.74 10.79-7.57-0.63-14.88-7.14-21.38-10.63-6.53-3.5-13.31-6.51-20.22-9.17-27.54-10.57-57.97-13.57-87.14-9.8-28.54 3.69-56.47 13.72-80.04 30.4-12.58 8.91-22.99 23-39.16 24.43-15.65 1.38-29.79 2.85-44.37 9.24-30.13 13.21-53.73 39.6-66.87 69.42-16.12 36.6-18.67 77.15-16.46 116.61 0.65 11.63 18.81 11.7 18.16 0z"/>
				<path id="&lt;Path&gt;" class="s3" d="m797.49 1088.3c62.37 57.7 162.77 66.83 234.14 20.33q-3.5 0.46-7 0.92c54.94 8.08 114.23 6.61 167.33-11.01 40.33-13.39 81.37-39.62 91.32-83.74q-8.3 1.08-16.6 2.17c40.11 54.33 118.55 52.87 178.9 44.84 60.71-8.09 118.72-30.6 165.56-70.67 30.4-26.01 54.71-58.5 73.46-93.71 5.5-10.32-10.18-19.5-15.68-9.17-29.8 55.95-73.89 102.01-131.65 129.08-49.38 23.14-106.79 32.41-161.09 29.85-34.01-1.6-72.47-10.47-93.81-39.39-4.27-5.78-14.73-6.15-16.6 2.17-6.73 29.81-30.53 49.63-57.02 62.4-32.22 15.52-69.4 21.28-104.8 23.09-19.97 1.03-40.02 0.51-59.9-1.58-5.23-0.55-10.56-1.78-15.79-2.01-4.63-0.2-7.5 2.27-11.3 4.56-6.74 4.07-13.77 7.71-21.03 10.73-28.59 11.89-60.53 15.59-91.17 11.61-34.95-4.54-68.5-19.33-94.42-43.31-8.57-7.93-21.45 4.88-12.85 12.84z"/>
				<path id="&lt;Path&gt;" class="s3" d="m868.09 1153.69c-21.94 17.65-27.21 52.09-12.43 75.82 2.59 4.16 8.11 5.78 12.43 3.26 4.15-2.43 5.86-8.25 3.26-12.43q-1.17-1.85-2.16-3.8-0.39-0.79-0.76-1.58c0.65 1.38-0.14-0.37-0.25-0.65q-1.45-3.88-2.22-7.95c0.01 0.05-0.38-2.43-0.24-1.38 0.14 1.1-0.11-1.19-0.13-1.4q-0.18-2.18-0.17-4.36 0.01-1.98 0.16-3.94 0.08-1.09 0.22-2.18c-0.17 1.33 0.02-0.01 0.12-0.62q0.74-4.11 2.1-8.05 0.29-0.82 0.6-1.64c0.94-2.58-0.39 0.77 0.26-0.65q0.91-1.99 1.98-3.89 0.96-1.71 2.06-3.34c-0.04 0.05 1.35-1.91 0.81-1.2-0.57 0.77 0.79-0.97 0.92-1.12 1.9-2.22 4.01-4.23 6.28-6.06 3.83-3.07 3.21-9.64 0-12.84-3.78-3.78-9.01-3.08-12.84 0z"/>
				<path id="&lt;Path&gt;" class="s3" d="m1047 1255.98c10.59 3.45 20.29-1.06 30.39-3.93 12.44-3.53 24.1 2 35.43 6.93 23.28 10.13 45.98 15.86 71.5 12.18 24.82-3.57 45.08-15.45 63.95-31.4 9.14-7.72 18.41-16.12 29.68-20.63 9.82-3.93 20.44-4.46 30.86-3.4 22.01 2.25 42.84 11.15 64.46 15.4 23.71 4.67 44.82 2.53 66.37-8.73 11.93-6.24 23.28-12.81 36.86-14.71 13.33-1.87 27-0.01 40.01 3 23.32 5.39 45.47 16.18 69.19 19.57 23.27 3.33 47.09 1.75 70.11-2.7 22.35-4.31 45.2-11.79 63.85-25.17 9.41-6.76 0.35-22.52-9.17-15.69-31.76 22.79-76.75 29.88-115.02 26.54-22.4-1.95-43.29-11.82-64.81-17.7-25-6.83-52.14-10.36-76.84-0.45-11.83 4.75-22.39 12.27-34.31 16.74-9.96 3.74-20.39 4.43-30.92 3.4-21.68-2.1-42.24-10.75-63.48-15.14-21.43-4.43-43.28-4.44-62.82 6.55-20.87 11.74-35.72 31.56-58.34 40.63-25.85 10.37-53.12 8.47-78.38-2.41-12.41-5.34-25.77-12.45-39.62-12.48-6.02-0.01-11.94 1.64-17.6 3.48-5.33 1.73-10.93 4.43-16.52 2.6-11.14-3.63-15.92 13.91-4.83 17.52z"/>
				<path id="&lt;Path&gt;" class="s3" d="m650.8 773.4c47.76 8.84 84.11-28.51 109.86-63.58 13.28-18.09 25.97-37 43.26-51.59 17.63-14.86 40.05-22.22 62.77-24.33 26.83-2.49 53.84 0.73 80.43 4.21 4.9 0.64 9.03-4.63 9.08-9.08 0.05-5.44-4.24-8.45-9.08-9.08-44.78-5.86-93.81-11.03-135.25 11.1-40.57 21.66-58.15 65.58-89.48 96.79-17.34 17.27-41.19 32.78-66.76 28.04-11.43-2.11-16.33 15.39-4.83 17.52z"/>
				<path id="&lt;Path&gt;" class="s3" d="m972.37 442.33c22.67-10.28 50.06 1.22 58.28 24.72 8.92 25.48-9.11 49.49-22.63 69.64-26.27 39.16-57.17 80.56-51.8 130.48 2.58 24.04 12.76 45.69 32.59 60.09 9.47 6.88 18.55-8.87 9.17-15.68-17.53-12.74-24.27-34.95-24.19-55.82 0.1-25.08 10.18-47.86 22.9-69.02 24.12-40.14 78.59-93.06 42.56-141.74-17.73-23.96-49.4-30.44-76.05-18.36-10.63 4.82-1.4 20.48 9.17 15.69z"/>
				<path id="&lt;Path&gt;" class="s3" d="m1170.86 381.68c26.33 18.26 42.54 49.52 42.91 81.48 0.14 11.68 18.3 11.71 18.16 0-0.45-38.68-20.21-75.18-51.91-97.17-4.03-2.8-10.08-0.74-12.42 3.26-2.64 4.52-0.79 9.62 3.26 12.43z"/>
				<path id="&lt;Path&gt;" class="s3" d="m1284.14 435.31c-41.67-4.74-76.54 34.98-88.73 70.95-3.13 9.23-5.05 19.38-4.09 29.14 0.48 4.88 3.83 9.08 9.08 9.08 4.54 0 9.57-4.17 9.08-9.08q-0.35-3.49-0.2-6.98 0.08-1.85 0.28-3.68c0.22-2.01-0.12 0.49 0.21-1.37 0.87-5.04 2.26-9.98 4.04-14.79 3.5-9.45 9.35-19.52 16.05-27.72 13.73-16.83 32.62-29.85 54.28-27.39 4.88 0.56 9.08-4.57 9.08-9.08 0-5.37-4.18-8.53-9.08-9.08z"/>
				<path id="&lt;Path&gt;" class="s3" d="m1195.44 509.54c-32.04 11.74-55.38 37.75-68 69-15.14 37.5-12.16 79.77-3 118.32 2.71 11.36 20.23 6.55 17.52-4.83-8.13-34.2-10.87-70.86 1.38-104.46 9.7-26.61 29.91-50.61 56.93-60.51 10.89-3.99 6.18-21.55-4.83-17.52z"/>
				<path id="&lt;Path&gt;" class="s3" d="m609.21 589.28c4.58-25.61 14.26-50.3 31.24-70.3 15.18-17.88 34.58-31.33 55.95-40.79 23.39-10.36 50.02-16.94 75.64-16.58 16.8 0.23 33.38 3.39 49.14 9.21 7.25 2.67 14.23 7.05 22.2 6.52 7.47-0.5 12.46-5.44 16.55-11.22 17.75-25.11 49.43-25.45 77.56-24.73 11.69 0.31 11.69-17.86 0-18.16-26.49-0.69-56.55 0.02-78.44 17.01-5.17 4.02-9.35 8.74-13.06 14.12-2.23 3.24-2.64 4.8-6.38 4.44-4.52-0.43-10.6-4.44-14.87-5.97-15.99-5.74-33.03-8.8-50-9.33-51.27-1.62-108.35 20.35-143.29 58.29-21.24 23.06-34.26 51.95-39.76 82.67-2.04 11.43 15.46 16.33 17.52 4.82z"/>
				<path id="&lt;Path&gt;" class="s3" d="m1295.8 441.01c4.89-28.41 24.11-49.8 49.73-61.97 20.18-9.58 47.79-14.68 68.85-5.47 10.61 4.65 19.87-11 9.17-15.68-27.39-11.99-59.33-7.34-85.84 4.84-30 13.78-53.74 40.41-59.43 73.45-1.97 11.43 15.53 16.34 17.52 4.83z"/>
				<path id="&lt;Path&gt;" class="s3" d="m1149.52 722.46c21.73 0.36 43.21 11.52 55.23 29.8 12.93 19.65 14.55 45.73 4.12 66.82-5.17 10.45 10.5 19.66 15.68 9.17 13.23-26.74 12.48-59.93-4.11-85.16-15.6-23.71-42.59-38.33-70.92-38.8-11.69-0.19-11.69 17.97 0 18.17z"/>
				<path id="&lt;Path&gt;" class="s3" d="m1004.32 746.43c28.5 13.72 34.78 49.86 12.37 72.36-9.82 9.85-21.41 18.87-24.1 33.37-2.57 13.87 2.27 28.57 13.15 37.69 8.91 7.46 21.82-5.32 12.85-12.84-11.33-9.5-10.55-23.61-0.87-33.94 10.91-11.64 22.1-20.65 27.64-36.23 10.48-29.43-3.98-62.67-31.87-76.09-10.49-5.05-19.71 10.61-9.17 15.68z"/>
				<path id="&lt;Path&gt;" class="s3" d="m791.16 784.8c11.46 5.59 23.44 11.53 32.09 21.15 9.86 10.96 7.26 24.55 9.13 38.08 3.74 27.05 20.95 51.45 45.05 64.26 10.32 5.48 19.5-10.19 9.17-15.69-11.72-6.23-21.27-15.35-27.91-26.87-7.05-12.23-8.63-24.62-9.21-38.46-0.6-14.28-5.5-26.57-15.77-36.65-9.51-9.33-21.51-15.72-33.38-21.5-10.47-5.1-19.68 10.56-9.17 15.68z"/>
				<path id="&lt;Path&gt;" class="s3" d="m609.39 762.83c-48-7.76-99.55-4.27-138.21 28.22-32.43 27.26-46.15 72.98-26.71 111.95 9.99 20.03 27.99 31.53 48.22 39.55 19.22 7.62 43.21 13.25 54.84 32.16 6.44 10.47 3.72 21.22 2 32.64-1.65 10.92-1.39 21.75 1.03 32.54 4.83 21.57 17.82 41.19 33.92 56.06 14.52 13.41 32.68 24.98 51.09 32.28 19.51 7.74 41.15 8.3 61.86 8.35 11.69 0.03 11.7-18.13 0-18.16-16.91-0.05-34.22-0.26-50.49-5.37-13.92-4.38-26.75-12.71-38.63-21.03-16.07-11.25-30.04-27.49-36.97-45.99-3.36-8.95-5.11-18.3-4.76-27.86 0.41-11.13 4.33-21.91 3.18-33.13-1.98-19.32-16.21-34.04-32.34-43.42-18.22-10.58-39.74-13.98-57.52-25.4-33-21.2-32.68-68.34-10.62-97.16 31.46-41.11 87.78-46.39 135.28-38.72 11.43 1.85 16.36-15.65 4.83-17.51z"/>
				<path id="&lt;Path&gt;" class="s3" d="m519.87 767.9c-8.36-39.98-14.92-86.76 8.89-122.95 19.75-30.03 59.09-45.23 93.92-37.2 11.38 2.62 16.23-14.89 4.83-17.52-41.83-9.64-86.74 7.38-111.99 42.02-29.44 40.38-22.74 94.69-13.16 140.48 2.39 11.44 19.9 6.6 17.51-4.83z"/>
				<path id="&lt;Path&gt;" class="s3" d="m1558.86 446.63c14.06 55.05-11.46 114.05-55.05 148.62-22.79 18.07-50.85 25.25-75.76 39.48-26.33 15.06-45.07 40.97-41.82 72.46 3.61 34.95 32.9 61.19 67.82 62.34 11.69 0.39 11.68-17.78 0-18.16-29.49-0.98-52.3-26.28-49.82-55.72 2.57-30.43 30.02-45.04 54.99-55.93 25.2-11 48.66-22.22 68.71-41.55 19.66-18.95 34.75-42.53 43.91-68.23 10.07-28.24 11.96-59.05 4.53-88.14-2.89-11.32-20.41-6.52-17.51 4.83z"/>
				<path id="&lt;Path&gt;" class="s3" d="m1562.4 557.08c59.46-27.17 132.55-4.83 166.01 51.27 15.78 26.47 21.51 56.52 17.89 87-3.8 31.89-14.04 63.14-25.84 92.87-11.77 29.68-25.94 58.51-41.93 86.14-5.87 10.13 9.83 19.29 15.69 9.16 32.78-56.64 61.74-120.46 69.96-185.89 8.6-68.45-29.46-136.51-94.88-160.9-37.56-14-79.75-11.93-116.07 4.66-10.61 4.85-1.39 20.51 9.17 15.69z"/>
				<path id="&lt;Path&gt;" class="s3" d="m1729.79 1195.63c59.17-37.83 89.69-112.16 74.27-180.66q-4.38 5.75-8.76 11.5c33.61-0.57 66.43-14.23 90.08-38.26 24.53-24.92 36.89-59.37 39.4-93.79 4.65-63.61-28.08-133.7-92.73-152.58-33.56-9.8-70.2-4.4-97.75 17.54-9.14 7.28 3.79 20.06 12.85 12.84 20.45-16.29 48.6-20.26 73.66-14.53 26.71 6.1 49.06 22.72 63.86 45.65 30.61 47.41 31.18 117.74-4.16 162.99-20.34 26.06-52.3 41.41-85.21 41.97-6.11 0.1-10.06 5.7-8.76 11.5 13.59 60.33-13.82 126.84-65.91 160.14-9.82 6.28-0.72 22.01 9.16 15.69z"/>
				<path id="&lt;Path&gt;" class="s3" d="m1802.69 1034.63c32.43 8.1 60.48 29.31 77.57 58.02 19.06 32.03 23.2 71.09 14.27 106.97-2.83 11.35 14.69 16.19 17.51 4.83 10.09-40.52 5.43-84.79-16.1-120.97-19.41-32.61-51.54-57.15-88.42-66.37-11.35-2.83-16.18 14.68-4.83 17.52z"/>
				<path id="&lt;Path&gt;" class="s3" d="m1902.45 1134.86c24.77 11.1 51.54 14.59 78.33 10.22 4.84-0.79 7.54-6.8 6.34-11.17-1.41-5.15-6.31-7.13-11.17-6.34-21.52 3.51-44.44 0.52-64.33-8.39-4.48-2-9.77-1.3-12.43 3.26-2.27 3.88-1.24 10.41 3.26 12.42z"/>
				<path id="&lt;Path&gt;" class="s3" d="m1689.89 1397.12c60.11 1.49 102.08-55.12 99.53-112.16q-5.74 4.37-11.49 8.75c69.59 24.25 150.94 5.11 202.78-47.13 8.24-8.31-4.59-21.16-12.84-12.85-47.57 47.94-121.43 64.66-185.11 42.47-5.45-1.9-11.75 3.12-11.5 8.76 2.11 47.3-30.87 95.24-81.37 94-11.69-0.29-11.68 17.88 0 18.16z"/>
				<path id="&lt;Path&gt;" class="s3" d="m975.43 1203.34c18.62 26.73 46.9 46.09 78.89 52.81 4.8 1.01 9.82-1.41 11.18-6.34 1.24-4.51-1.53-10.16-6.35-11.18-27.26-5.73-52.06-21.52-68.04-44.46-2.8-4.02-7.95-5.88-12.42-3.26-3.98 2.33-6.08 8.38-3.26 12.43z"/>
				<path id="&lt;Path&gt;" class="s3" d="m1014.04 1233.26c-25.3 20.34-36.03 56.43-26.75 87.4 3.35 11.17 20.88 6.41 17.52-4.83-7.52-25.09 1.27-53 22.08-69.72 3.82-3.08 3.2-9.64 0-12.85-3.78-3.78-9.01-3.08-12.85 0z"/>
				<path id="&lt;Path&gt;" class="s3" d="m862.31 1125.05c-4.46 11.67-6.24 24.56-5.13 37.01 0.22 2.45 0.87 4.62 2.66 6.42 1.58 1.57 4.16 2.76 6.42 2.66 4.56-0.21 9.54-4.02 9.09-9.08q-0.41-4.48-0.31-8.96 0.05-1.93 0.2-3.84 0.09-1.28 0.23-2.55c0.07-0.65 0.59-2.5 0-0.13 0.67-2.68 0.93-5.48 1.62-8.17q1.13-4.34 2.74-8.53c1.7-4.45-1.88-10.16-6.34-11.18-5.19-1.18-9.36 1.59-11.18 6.35z"/>
				<path id="&lt;Path&gt;" class="s3" d="m437.92 926.98c-52.95 48.64-24.12 130.48 13.95 178.49 36.31 45.79 92.64 80 152.2 80.26 37.82 0.16 72.67-14.45 102.17-37.44 9.21-7.18-3.72-19.95-12.84-12.85-23.19 18.08-51.11 30.23-80.66 31.9-26.35 1.48-52.66-4.67-76.27-16.26-46.83-22.98-85.78-65.03-102.37-114.77-10.92-32.72-10.37-71.65 16.66-96.48 8.63-7.93-4.24-20.75-12.84-12.85z"/>
				<path id="&lt;Path&gt;" class="s3" d="m437.09 933.93c-35.49-36.75-55.57-87.16-54.41-138.31 1.12-49.69 22.75-98.48 58.42-133.01 8.81-8.53 18.74-16.16 25.26-26.74 7.15-11.61 7.86-25.28 10.66-38.28 5.13-23.76 14.41-46.36 27.31-66.96 26.7-42.65 68.43-74.19 116.76-88.2 25.17-7.29 51.46-9.89 77.56-7.51 13.42 1.23 27.03 4.71 39.97-0.85 11.19-4.8 18.61-14.55 26.9-23.02 31.84-32.56 76.61-51.72 121.93-54.24 22.97-1.28 45.92 1.54 67.74 8.89 12.85 4.33 24.89 9.01 38.16 3.39 10.79-4.56 18.76-13.55 27.58-20.95 33.09-27.81 75.81-43.96 118.67-47.85 43.54-3.96 88.4 3.69 127.22 24.16 9.69 5.11 19.03 10.96 27.78 17.56 9.02 6.8 17.13 15.97 28.19 19.46 11.45 3.61 22.47-1.47 33.67-3.46 9.4-1.68 19.1-2.37 28.64-1.76 6.91 0.45 17.15 1.55 21.54 7.77 6.7 9.46 22.46 0.4 15.69-9.17-11.88-16.8-35.06-18.03-53.86-16.54-11.25 0.89-21.6 3.89-32.61 5.92-12.11 2.22-21.62-9.93-30.4-16.62-36.59-27.9-81.82-43.01-127.53-45.98-45.37-2.95-91.84 6.5-132 27.95-9.98 5.34-19.53 11.45-28.54 18.3-9.27 7.06-17.38 16.39-27.27 22.51-12.15 7.54-25.29-1-37.54-4.53-11.47-3.3-23.26-5.4-35.13-6.59-47.53-4.73-97.34 8.13-136.6 35.34-10.08 6.98-19.6 14.84-28.18 23.6-8.86 9.05-16.35 20.56-30.23 20.91-13.76 0.34-27.6-3.12-41.44-3.22-13.44-0.1-26.88 1.14-40.12 3.38-51.79 8.75-100.1 36.14-133.65 76.6-16.3 19.64-29.19 41.63-38.34 65.46-4.49 11.67-7.96 23.74-10.32 36.02-2.73 14.21-4.14 26.79-14.59 37.62-8.94 9.26-18.9 17.32-27.36 27.08-8.43 9.71-16.04 20.18-22.59 31.25-13.3 22.49-22.58 47.61-26.75 73.41-8.37 51.78 3.35 105.89 32.42 149.6 7.23 10.87 15.47 21.06 24.54 30.45 8.14 8.43 20.97-4.42 12.85-12.84z"/>
				<path id="&lt;Path&gt;" class="s3" d="m669.69 609.21c37.87 1.72 75.09 15.5 104.7 39.26 3.83 3.07 9.11 3.73 12.85 0 3.17-3.18 3.84-9.76 0-12.84-33.58-26.94-74.5-42.63-117.55-44.58-11.69-0.53-11.66 17.63 0 18.16z"/>
				<path id="&lt;Path&gt;" class="s3" d="m709.76 552.45c-3.67 19-1.24 38.14 6.96 55.65 2.02 4.32 8.56 5.75 12.43 3.26 4.44-2.86 5.42-7.81 3.25-12.43-0.13-0.28-1.47-3.39-0.81-1.76q-0.49-1.19-0.94-2.4-1.04-2.83-1.86-5.72-0.82-2.9-1.42-5.85-0.25-1.27-0.47-2.54-0.14-0.84-0.26-1.7 0.16 1.28 0.04 0.29c-0.37-3.87-0.63-7.7-0.52-11.59 0.06-2 0.22-4 0.4-6 0.26-2.79-0.32 1.78 0.12-0.99q0.27-1.7 0.59-3.39c0.9-4.65-1.3-10.03-6.34-11.17-4.49-1.03-10.21 1.35-11.17 6.34z"/>
				<path id="&lt;Path&gt;" class="s3" d="m1876.88 996.04c25.63-2.7 51.57 5.43 70.48 23.1 8.53 7.97 21.41-4.84 12.84-12.84-22.17-20.72-53.03-31.62-83.32-28.42-4.88 0.51-9.08 3.8-9.08 9.08 0 4.51 4.17 9.6 9.08 9.08z"/>
				<path id="&lt;Path&gt;" class="s3" d="m1943.83 1006.33c12.31-14.34 25.93-27.5 40.68-39.31 3.73-2.98 3.34-9.77 0-12.84-3.96-3.63-8.87-3.18-12.84 0-14.76 11.81-28.37 24.97-40.68 39.3-3.09 3.61-3.8 9.36 0 12.85 3.4 3.12 9.54 3.85 12.84 0z"/>
				<path id="&lt;Path&gt;" class="s3" d="m1035.11 341.25c40.45-14.02 83.74-1.82 118.7 20.55 9.88 6.32 19-9.4 9.17-15.69-38.75-24.79-87.95-37.89-132.7-22.38-10.98 3.8-6.26 21.36 4.83 17.52z"/>
				<path id="&lt;Path&gt;" class="s3" d="m1450.09 698.93c-3.22 26.95 1.64 54.16 13.03 78.71 2.07 4.45 8.48 5.57 12.43 3.26 4.56-2.67 5.33-7.96 3.26-12.42-10.06-21.69-13.38-45.89-10.56-69.55 0.59-4.88-4.59-9.08-9.08-9.08-5.39 0-8.5 4.19-9.08 9.08z"/>
				<path id="&lt;Path&gt;" class="s3" d="m1421.29 371.38c53.13-33.11 128.21 8.91 136.86 68.35 1.68 11.53 19.19 6.63 17.52-4.83-10.34-71.05-101.31-117.99-163.55-79.2-9.9 6.17-0.79 21.89 9.17 15.68z"/>
				<path id="&lt;Path&gt;" class="s3" d="m1569.26 448.85c40.17-11.32 84.15-6.86 121.22 12.42 36.9 19.18 64.84 52.53 78.14 91.89 7.49 22.16 10.22 45.3 8.14 68.6-0.58 6.5 6.24 9.54 11.49 8.76 46.32-6.9 93.82 19.33 118.3 58.11 28.14 44.58 27.3 101.51 8.13 149.3-1.38 3.43 0.87 8.67 4.18 10.25 40.88 19.65 63.35 68.61 50.74 112.35-1.5 5.2 2.82 12.13 8.76 11.5 37.34-3.94 40.69 50.01 42.25 75.35 1.8 29.42-3.57 68.68-35.72 80.29-7.55 2.72-8.79 12.04-2.17 16.6 16.64 11.44 26.01 33.21 21.74 53.15-4.22 19.65-19.91 35.06-39.21 39.93-5.2 1.31-8.95 8.62-5.43 13.34 24.85 33.33-9.83 70.92-34.31 91.95-28.24 24.25-66.11 44.44-104.24 35.02-11.35-2.8-16.19 14.71-4.83 17.52 45.75 11.29 90.15-11.84 123.81-41.35 16.46-14.42 32.26-31.07 40.61-51.62 7.93-19.51 7.56-43.36-5.35-60.69q-2.72 6.68-5.43 13.35c25.79-6.52 47.5-28.25 52.31-54.72 5.05-27.76-7.46-55.72-30.5-71.57q-1.09 8.3-2.17 16.6c41.56-15 51.75-61.17 48.85-100.69-1.54-21.06-3.24-44.27-13.59-63.14-9.09-16.61-27.08-29.55-46.62-27.48q4.38 5.74 8.75 11.49c14.71-51.02-11.07-109.79-59.09-132.86q2.09 5.13 4.18 10.26c16.86-42.05 20.06-90.97 4.28-133.87-14.75-40.1-45.32-72.14-85.05-88.1-21.69-8.71-44.94-11.23-68-7.79q5.74 4.38 11.49 8.76c4.05-45.34-9.9-91.58-37.61-127.6-28.12-36.57-70.08-60.72-115.68-67.48-25.84-3.82-52.03-2.44-77.19 4.66-11.24 3.17-6.46 20.7 4.82 17.51z"/>
			</g>
		</g>
		<path id="&lt;Path&gt;" class="s0" d="m409.62 1202.04c-56.17 15.51-68.74 28.09-84.25 84.26-15.51-56.17-28.09-68.75-84.26-84.26 56.17-15.51 68.75-28.08 84.26-84.25 15.51 56.17 28.08 68.74 84.25 84.25z"/>
		<path id="&lt;Path&gt;" class="s0" d="m2281.96 733.03c-56.17 15.51-68.74 28.08-84.25 84.25-15.51-56.17-28.09-68.74-84.26-84.25 56.17-15.51 68.75-28.09 84.26-84.25 15.51 56.16 28.08 68.74 84.25 84.25z"/>
		<path id="&lt;Path&gt;" class="s0" d="m355.84 919.15c-30.24 8.35-37.01 15.12-45.36 45.36-8.36-30.24-15.13-37.01-45.37-45.36 30.24-8.36 37.01-15.13 45.37-45.37 8.35 30.24 15.12 37.01 45.36 45.37z"/>
		<path id="&lt;Path&gt;" class="s0" d="m512.18 1321.16c-30.24 8.35-37.01 15.12-45.36 45.37-8.36-30.25-15.13-37.02-45.37-45.37 30.24-8.35 37.01-15.12 45.37-45.37 8.35 30.25 15.12 37.02 45.36 45.37z"/>
		<path id="&lt;Path&gt;" class="s0" d="m2083.01 584.13c-30.24 8.36-37.01 15.13-45.36 45.37-8.36-30.24-15.13-37.01-45.37-45.37 30.24-8.35 37.01-15.12 45.37-45.36 8.35 30.24 15.12 37.01 45.36 45.36z"/>
		<path id="&lt;Path&gt;" class="s0" d="m2123.96 937.76c-30.25 8.35-37.02 15.12-45.37 45.36-8.35-30.24-15.12-37.01-45.36-45.36 30.24-8.35 37.01-15.13 45.36-45.37 8.35 30.24 15.12 37.02 45.37 45.37z"/>
	</g>
</svg>