<svg width="512" height="512" viewBox="0 0 512 512" fill="none" xmlns="http://www.w3.org/2000/svg">
<g clip-path="url(#clip0_58_536)">
<path d="M220.02 -0.502217C220.931 -0.50762 221.842 -0.513023 222.781 -0.51859C225.792 -0.531096 228.802 -0.514573 231.813 -0.496602C233.906 -0.496757 235.998 -0.498245 238.09 -0.501011C242.475 -0.502396 246.859 -0.489822 251.244 -0.467061C256.867 -0.438676 262.489 -0.441412 268.111 -0.454151C272.432 -0.461103 276.752 -0.453323 281.072 -0.440894C283.145 -0.436375 285.219 -0.436046 287.292 -0.439959C290.189 -0.442867 293.085 -0.426384 295.981 -0.404561C296.84 -0.409062 297.698 -0.413564 298.582 -0.418202C302.075 -0.374449 304.387 -0.329005 307.502 1.33725C310.043 4.15468 310.123 6.82883 310.099 10.4487C310.095 11.2963 310.092 12.1438 310.089 13.0171C310.08 13.8981 310.072 14.7792 310.063 15.687C310.059 16.5797 310.054 17.4723 310.05 18.3921C310.038 20.5946 310.022 22.797 310.001 24.9995C317.33 25.031 324.657 25.0248 331.986 24.971C335.389 24.9472 338.792 24.9362 342.195 24.9548C346.113 24.9757 350.029 24.9402 353.946 24.9018C355.77 24.9232 355.77 24.9232 357.631 24.945C363.729 25.011 363.729 25.011 369.005 22.4127C370.593 20.5585 370.593 20.5585 371.767 18.5868C373.001 16.9995 373.001 16.9995 374.956 16.3193C382.896 15.4278 390.823 20.8266 397.626 24.3745C399.072 25.1145 400.518 25.8541 401.965 26.5935C411.412 31.4635 420.537 36.5368 429.001 42.9995C429.934 43.6969 430.867 44.3943 431.829 45.1128C449.423 58.861 462.778 75.2632 473.001 94.9995C473.322 95.6102 473.643 96.2209 473.974 96.8501C487.286 122.486 494.488 156.027 486.345 184.296C480.949 199.167 480.949 199.167 476.099 203.828C474.771 205.886 474.771 205.886 475.407 207.857C477.362 213.44 479.591 218.83 482.056 224.207C482.439 225.053 482.822 225.9 483.217 226.772C484.433 229.454 485.654 232.133 486.876 234.812C503.449 271.246 503.449 271.246 500.876 279.187C498.605 284.381 495.581 287.166 490.563 289.812C486.601 291.176 482.884 291.12 478.716 291.074C477.458 291.063 476.199 291.052 474.903 291.041C473.945 291.027 472.988 291.014 472.001 290.999C472.038 291.806 472.074 292.612 472.112 293.443C472.258 297.128 472.349 300.813 472.438 304.499C472.526 306.402 472.526 306.402 472.616 308.343C472.81 318.952 472.81 318.952 469.036 323.343C466.965 325.27 464.86 327.115 462.672 328.908C458.256 332.792 455.471 335.614 454.951 341.624C454.938 343.702 454.971 345.781 455.044 347.859C455.044 348.966 455.044 350.074 455.044 351.215C455.05 354.728 455.115 358.237 455.188 361.749C455.235 365.276 455.268 368.801 455.279 372.327C455.289 374.514 455.32 376.702 455.376 378.888C455.445 386.262 455.445 386.262 453.108 390.145C449.866 392.999 447.978 393.144 443.735 393.24C442.081 393.279 442.081 393.279 440.393 393.318C435.282 393.403 430.17 393.468 425.059 393.514C422.381 393.541 419.707 393.593 417.029 393.658C400.407 394.054 387.472 393.491 373.001 384.999C371.821 384.368 370.637 383.743 369.45 383.126C366.26 381.438 363.128 379.675 360.001 377.874C358.974 377.293 357.946 376.712 356.888 376.113C350.534 372.504 344.249 368.789 338.001 364.999C336.659 366.659 335.329 368.329 334.001 369.999C333.428 370.67 332.855 371.34 332.265 372.031C320.255 386.573 313.463 405.059 314.29 424.017C317.506 452.721 352.733 476.925 373.196 494.57C376.588 497.52 377.883 498.746 378.313 503.312C377.931 507.822 377.425 509.047 374.001 512C370.294 512.766 366.622 512.673 362.848 512.634C361.696 512.642 360.545 512.65 359.358 512.658C356.162 512.675 352.966 512.669 349.769 512.653C346.322 512.642 342.874 512.659 339.427 512.673C332.673 512.695 325.92 512.69 319.166 512.676C313.678 512.665 308.189 512.663 302.701 512.669C301.53 512.67 301.53 512.67 300.335 512.671C298.749 512.672 297.163 512.674 295.578 512.676C280.7 512.69 265.823 512.674 250.946 512.647C238.178 512.624 225.41 512.628 212.642 512.651C197.82 512.678 182.998 512.689 168.176 512.673C166.596 512.672 165.015 512.67 163.435 512.669C162.657 512.668 161.88 512.667 161.079 512.666C155.596 512.662 150.115 512.669 144.633 512.681C137.952 512.695 131.271 512.691 124.59 512.665C121.181 512.651 117.772 512.646 114.363 512.663C110.669 512.676 106.975 512.659 103.281 512.634C101.661 512.651 101.661 512.651 100.008 512.668C92.7773 512.573 92.7773 512.573 88.8428 509.667C87.0009 506.999 87.0009 506.999 86.2509 503.687C87.8774 495.69 94.766 491.259 101.114 486.789C126.285 469.06 159.269 445.534 165.338 413.431C170.806 380.881 167.986 346.013 165.043 313.318C164.942 312.116 164.84 310.914 164.736 309.675C164.542 307.441 164.326 305.208 164.082 302.978C163.461 295.752 163.461 295.752 166.272 291.834C169.708 289.524 171.714 289.42 175.833 289.511C176.998 289.524 178.163 289.536 179.363 289.549C180.832 289.595 182.3 289.64 183.813 289.687C188.495 289.79 193.177 289.893 198.001 289.999C198.001 276.139 198.001 262.279 198.001 247.999C195.691 247.999 193.381 247.999 191.001 247.999C187.91 246.18 186.39 244.926 184.997 241.609C184.813 240.665 184.628 239.722 184.438 238.749C184.209 237.623 183.98 236.496 183.743 235.335C183.126 231.87 182.598 228.393 182.071 224.914C181.904 223.839 181.738 222.764 181.566 221.657C181.234 219.487 180.919 217.314 180.622 215.139C180.47 214.131 180.318 213.124 180.161 212.085C180.034 211.178 179.906 210.271 179.775 209.337C178.806 206.41 177.647 205.51 175.001 203.999C172.91 204.07 172.91 204.07 170.751 204.937C169.89 205.231 169.029 205.525 168.142 205.828C161.24 208.393 161.24 208.393 154.359 211.017C149.209 212.999 149.209 212.999 147.001 212.999C147.07 213.747 147.139 214.494 147.211 215.263C147.928 223.638 148.218 231.977 148.241 240.377C148.251 242.525 148.282 244.672 148.313 246.82C148.32 248.203 148.325 249.585 148.329 250.968C148.338 252.2 148.348 253.432 148.357 254.701C147.968 258.307 147.186 260.135 145.001 262.999C141.614 265.257 140.484 265.244 136.52 265.227C135.399 265.226 134.278 265.226 133.123 265.226C131.309 265.211 131.309 265.211 129.458 265.195C127.6 265.191 127.6 265.191 125.704 265.186C122.415 265.177 119.125 265.159 115.835 265.137C112.477 265.116 109.119 265.107 105.761 265.097C99.174 265.075 92.5875 265.042 86.0009 264.999C85.7 265.949 85.3991 266.898 85.0891 267.876C83.0156 273.828 78.332 277.597 72.8134 280.437C65.7524 283.216 58.1409 283.205 51.1259 280.312C44.4556 276.832 40.0752 272.809 36.9228 265.941C34.5787 258.462 34.8208 250.653 38.0634 243.499C41.7393 237.211 46.7142 232.722 53.7079 230.476C61.667 228.822 68.6197 229.342 75.7353 233.371C80.819 237.026 84.4729 240.887 86.0009 246.999C100.521 246.999 115.041 246.999 130.001 246.999C129.671 242.709 129.341 238.419 129.001 233.999C129.106 230.976 129.212 227.953 129.319 224.93C129.598 209.574 124.52 199.881 116.345 187.457C113.54 183.144 111.953 180.163 112.001 174.999C114.1 169.403 118.279 167.131 123.001 162.999C102.541 162.999 82.0809 162.999 61.0009 162.999C59.6809 165.309 58.3609 167.619 57.0009 169.999C51.3555 176.527 44.9819 179.466 36.5009 180.374C28.8618 179.556 21.6511 177.009 16.372 171.21C10.9583 164.453 9.06423 157.593 10.0009 148.999C11.5688 142.017 15.36 135.463 21.3329 131.421C29.1909 127.221 35.8482 126.154 44.5439 128.144C51.1116 130.431 56.0412 135.431 60.0009 140.999C60.0009 141.989 60.0009 142.979 60.0009 143.999C60.7332 143.987 61.4656 143.974 62.2201 143.962C69.2187 143.842 76.2174 143.724 83.2161 143.608C86.8117 143.549 90.4073 143.488 94.0029 143.427C110.003 143.153 125.998 142.913 142.001 142.999C142.001 142.339 142.001 141.679 142.001 140.999C141.467 140.775 140.934 140.551 140.384 140.32C137.209 138.561 134.599 136.247 131.876 133.874C127.04 129.704 122.126 125.698 117.024 121.851C114.717 119.739 113.367 117.81 112.001 114.999C112.001 113.679 112.001 112.359 112.001 110.999C111.336 111.011 110.67 111.022 109.985 111.033C103.058 111.144 96.1316 111.219 89.2043 111.274C86.6192 111.299 84.0342 111.333 81.4494 111.377C77.7333 111.437 74.0182 111.466 70.3017 111.488C69.1463 111.514 67.9909 111.539 66.8005 111.566C61.9838 111.568 58.9338 111.566 54.7626 109.033C52.354 104.886 52.3656 101.694 52.5126 96.98C52.5197 96.1214 52.5268 95.2628 52.5341 94.3782C52.562 91.6469 52.6247 88.9177 52.6884 86.187C52.7135 84.3309 52.7363 82.4748 52.7568 80.6186C52.8118 76.0781 52.898 71.5392 53.0009 66.9995C51.8283 66.5481 51.8283 66.5481 50.632 66.0876C44.9183 63.7246 40.3396 59.36 37.5009 53.8745C34.6237 46.3009 34.6801 38.0204 38.0009 30.6245C41.2685 24.9247 45.7409 20.8385 51.4384 17.6245C60.3126 15.4601 68.0726 15.5574 76.1884 20.1245C82.0542 24.0936 86.6264 29.9895 88.0009 36.9995C88.792 46.3342 87.6794 53.0584 81.6259 60.312C79.0053 63.1321 76.5452 65.3792 73.0009 66.9995C72.3409 66.9995 71.6809 66.9995 71.0009 66.9995C71.0009 75.5795 71.0009 84.1595 71.0009 92.9995C78.0927 93.2251 85.1508 93.4002 92.2411 93.4511C94.647 93.4831 97.0526 93.5436 99.457 93.6338C112.392 94.6799 112.392 94.6799 124.046 90.3882C127.319 86.5222 129.233 82.2758 131.182 77.6443C132.001 75.9995 132.001 75.9995 133.789 74.435C139.521 73.3062 144.805 75.4981 150.071 77.5737C151.393 78.0814 152.714 78.5886 154.036 79.0952C156.09 79.8918 158.142 80.6936 160.191 81.5056C162.187 82.2934 164.191 83.0598 166.196 83.8237C167.382 84.2887 168.568 84.7536 169.79 85.2326C172.916 86.192 172.916 86.192 175.801 85.573C179.792 82.7184 179.779 78.2029 180.623 73.622C180.797 72.4756 180.971 71.3291 181.149 70.1479C181.35 68.8846 181.552 67.6214 181.759 66.3198C182.068 64.3414 182.378 62.3629 182.673 60.3823C182.963 58.4478 183.275 56.5166 183.587 54.5854C183.763 53.4412 183.938 52.297 184.12 51.1181C185.118 47.584 186.491 45.6503 189.001 42.9995C192.189 41.4054 195.63 41.8977 199.126 41.937C199.88 41.9415 200.634 41.946 201.411 41.9507C203.274 41.9625 205.138 41.9804 207.001 41.9995C206.98 40.8693 206.959 39.7391 206.937 38.5747C206.865 34.3779 206.819 30.1811 206.781 25.9839C206.761 24.168 206.734 22.3522 206.699 20.5366C206.651 17.9251 206.628 15.3145 206.61 12.7026C206.59 11.8921 206.569 11.0815 206.548 10.2464C206.546 6.94757 206.619 4.57675 208.466 1.78445C212.224 -0.861892 215.525 -0.552853 220.02 -0.502217ZM225.001 17.9995C225.001 25.9195 225.001 33.8395 225.001 41.9995C227.641 42.6595 230.281 43.3195 233.001 43.9995C236.556 47.0634 236.803 51.2128 237.431 55.6518C237.671 57.1656 237.912 58.6793 238.153 60.1929C238.518 62.5661 238.876 64.94 239.225 67.3157C239.568 69.6183 239.935 71.916 240.306 74.2143C240.402 74.9197 240.498 75.625 240.597 76.3518C241.422 81.3566 243.153 83.763 247.001 86.9995C252.492 85.4568 257.865 83.7218 263.2 81.7026C264.264 81.3017 265.328 80.9008 266.425 80.4878C268.616 79.6564 270.803 78.8151 272.987 77.9643C283.991 73.857 283.991 73.857 289.001 75.9995C289.859 77.4845 290.669 78.9979 291.446 80.5268C292.819 83.0738 292.819 83.0738 295.001 84.9995C300.308 86.1615 305.495 85.8497 310.876 85.562C312.342 85.5168 313.808 85.4757 315.274 85.4389C318.853 85.3402 322.426 85.1851 326.001 84.9995C326.803 83.2844 326.803 83.2844 327.622 81.5346C329.987 76.812 332.924 72.6707 336.063 68.437C336.628 67.6656 337.192 66.8941 337.773 66.0993C339.509 63.728 341.254 61.363 343.001 58.9995C344.615 56.8122 346.229 54.6245 347.841 52.4353C348.807 51.1238 349.777 49.8143 350.749 48.5071C352.996 45.9949 352.996 45.9949 354.001 42.9995C353.296 42.9958 352.59 42.9922 351.864 42.9884C345.213 42.9506 338.563 42.8937 331.913 42.8156C328.494 42.7761 325.075 42.7439 321.656 42.7285C317.724 42.7104 313.792 42.6605 309.86 42.6089C308.634 42.6076 307.408 42.6064 306.145 42.6051C305.004 42.5854 303.863 42.5657 302.687 42.5454C301.684 42.5365 300.68 42.5276 299.646 42.5185C297.001 41.9995 297.001 41.9995 293.001 37.9995C292.671 31.3995 292.341 24.7995 292.001 17.9995C269.891 17.9995 247.781 17.9995 225.001 17.9995ZM56.0634 37.062C53.6537 39.8957 53.6537 39.8957 54.0009 43.6245C55.0916 47.5312 55.0916 47.5312 58.0009 49.9995C60.3655 51.0058 60.3655 51.0058 63.0009 50.9995C66.4873 49.3779 67.8439 48.235 70.0009 44.9995C69.8276 40.1019 69.8276 40.1019 67.3134 36.062C62.8013 33.9888 60.1301 34.2067 56.0634 37.062ZM380.001 36.9995C379.67 37.4913 379.339 37.983 378.998 38.4897C372.734 47.7764 366.434 57.0047 359.576 65.8667C358.663 67.0578 357.768 68.2631 356.889 69.4798C355.421 71.4389 353.914 73.2872 352.336 75.1537C343.292 86.3709 342.293 95.9568 342.364 110.042C342.344 112.144 342.321 114.246 342.296 116.347C342.258 120.731 342.261 125.112 342.292 129.496C342.32 133.951 342.285 138.397 342.19 142.851C340.414 173.883 340.414 173.883 353.961 200.438C355.322 201.748 356.71 203.031 358.128 204.28C360.86 206.788 362.824 209.585 364.938 212.624C365.525 213.421 366.111 214.218 366.716 215.039C369.485 219.265 369.178 223.565 369.204 228.429C369.21 229.257 369.215 230.084 369.221 230.936C369.231 232.686 369.237 234.436 369.241 236.187C369.251 238.858 369.282 241.528 369.313 244.199C369.32 245.901 369.325 247.602 369.329 249.304C369.341 250.1 369.354 250.896 369.366 251.716C369.348 256.257 369.195 259.501 366.001 262.999C363.342 264.555 360.56 265.642 357.685 266.734C356.466 267.219 356.466 267.219 355.223 267.714C352.634 268.741 350.037 269.746 347.438 270.749C345.686 271.439 343.934 272.131 342.183 272.824C338.984 274.088 335.782 275.342 332.577 276.588C330.693 277.332 328.812 278.094 327.001 278.999C326.769 286.31 326.591 293.619 326.483 300.932C326.431 304.329 326.36 307.723 326.247 311.118C326.116 315.028 326.068 318.936 326.024 322.847C325.973 324.058 325.921 325.269 325.868 326.516C325.797 332.988 325.797 332.988 329.128 338.266C331.681 340.075 334.226 341.558 337.001 342.999C338.58 343.975 340.154 344.959 341.72 345.957C343.311 346.913 344.904 347.865 346.501 348.812C347.363 349.326 348.226 349.839 349.114 350.368C356.181 354.555 363.273 358.685 370.532 362.531C373.538 364.135 376.312 365.88 379.095 367.843C396.132 379.016 417.494 375.874 437.001 374.999C437.01 374.152 437.01 374.152 437.019 373.287C437.083 367.398 437.167 361.509 437.263 355.621C437.297 353.424 437.325 351.227 437.347 349.03C437.381 345.87 437.433 342.71 437.489 339.55C437.496 338.57 437.502 337.589 437.509 336.579C437.616 331.582 437.753 328.071 441.001 323.999C439.743 323.608 438.485 323.216 437.188 322.812C425.745 318.962 410.133 313.197 404.001 301.999C403.316 297.956 403.352 296.055 405.501 292.562C408.276 290.827 410.446 290.195 413.735 290.347C417.685 291.484 420.375 294.255 423.442 296.898C431.929 303.869 443.093 307.141 454.001 306.999C454.01 306.142 454.02 305.284 454.029 304.401C454.073 301.21 454.135 298.02 454.208 294.829C454.237 293.45 454.258 292.071 454.272 290.691C454.293 288.705 454.342 286.719 454.392 284.734C454.412 283.54 454.433 282.346 454.455 281.116C455.001 277.999 455.001 277.999 456.686 275.617C459.527 273.632 461.195 273.463 464.642 273.39C465.711 273.358 466.781 273.326 467.884 273.292C468.995 273.278 470.106 273.264 471.251 273.249C472.378 273.22 473.504 273.19 474.665 273.16C477.444 273.089 480.222 273.036 483.001 272.999C481.008 266.588 478.568 260.52 475.763 254.425C475.359 253.539 474.956 252.653 474.541 251.74C473.261 248.928 471.975 246.12 470.688 243.312C467.81 237.01 464.939 230.704 462.086 224.39C461.086 222.187 460.073 219.99 459.058 217.794C458.503 216.565 457.949 215.335 457.395 214.105C456.926 213.079 456.457 212.053 455.973 210.996C454.835 207.488 454.725 204.667 455.001 200.999C456.54 198.55 456.54 198.55 458.626 196.312C470.104 182.921 472.006 169.009 471.001 151.999C468.518 121.5 454.841 94.0639 434.001 71.9995C433.327 71.2609 432.653 70.5222 431.958 69.7612C418.443 55.486 398.722 43.24 380.001 36.9995ZM202.001 59.9995C200.505 64.5128 199.668 68.9231 198.993 73.6323C198.719 75.4595 198.719 75.4595 198.438 77.3237C198.063 79.8619 197.711 82.4038 197.384 84.9487C195.962 94.0083 195.962 94.0083 193.178 96.8801C191.163 98.1336 189.188 99.0889 187.001 99.9995C185.887 100.783 185.887 100.783 184.751 101.582C184.173 101.988 183.596 102.394 183.001 102.812C182.135 103.44 182.135 103.44 181.251 104.082C173.04 107.431 165.341 103.101 157.751 99.937C155.437 98.9777 153.12 98.028 150.798 97.0893C149.78 96.6652 148.763 96.241 147.715 95.8039C144.875 94.9623 143.665 94.7541 141.001 95.9995C139.411 98.3468 138.066 100.571 136.751 103.062C136.206 104.057 136.206 104.057 135.649 105.072C134.755 106.708 133.876 108.353 133.001 109.999C140.133 117.206 147.732 123.678 155.716 129.921C159.294 133.175 160.074 135.406 160.302 140.152C160.316 141.747 160.32 143.342 160.313 144.937C160.33 145.736 160.346 146.534 160.362 147.357C160.366 152.087 160.113 155.219 157.001 158.999C154.907 161.057 152.7 162.942 150.438 164.812C149.511 165.593 149.511 165.593 148.565 166.389C143.447 170.68 138.258 174.881 133.001 178.999C133.933 180.919 134.872 182.835 135.813 184.749C136.335 185.817 136.858 186.884 137.395 187.984C138.763 190.552 140.178 192.744 142.001 194.999C146.131 194.422 149.722 193.48 153.591 191.933C154.623 191.53 155.655 191.127 156.718 190.712C158.863 189.863 161.006 189.009 163.147 188.15C175.23 183.454 175.23 183.454 180.905 185.78C182.949 186.82 184.872 187.968 186.813 189.187C187.814 189.768 187.814 189.768 188.835 190.361C192.886 192.834 194.532 194.334 196.001 198.999C196.473 201.328 196.886 203.668 197.255 206.015C197.361 206.672 197.466 207.328 197.575 208.004C197.91 210.085 198.237 212.167 198.563 214.249C198.894 216.346 199.225 218.442 199.562 220.538C199.866 222.428 200.163 224.32 200.46 226.211C200.711 228.896 200.711 228.896 202.001 229.999C203.344 230.086 204.691 230.107 206.036 230.097C206.845 230.094 207.654 230.091 208.487 230.087C209.337 230.079 210.188 230.071 211.063 230.062C211.917 230.057 212.771 230.053 213.651 230.048C215.768 230.037 217.884 230.019 220.001 229.999C222.33 222.721 223.301 215.261 224.413 207.716C226.06 197.214 226.06 197.214 229.001 192.999C231.595 191.171 231.595 191.171 234.501 189.749C235.46 189.27 236.419 188.79 237.407 188.296C238.263 187.868 239.119 187.44 240.001 186.999C240.991 186.339 241.981 185.679 243.001 184.999C248.067 184.592 251.757 185.355 256.45 187.222C257.628 187.678 258.805 188.134 260.018 188.603C261.23 189.084 262.441 189.566 263.688 190.062C266.105 191.021 268.525 191.971 270.95 192.91C272.016 193.334 273.081 193.758 274.179 194.195C277.064 195.017 278.309 195.269 281.001 193.999C282.591 191.652 283.936 189.428 285.251 186.937C285.614 186.274 285.978 185.611 286.352 184.927C287.247 183.291 288.126 181.646 289.001 179.999C285.045 175.929 280.867 172.198 276.563 168.499C275.921 167.944 275.278 167.388 274.616 166.816C273.981 166.268 273.346 165.72 272.692 165.156C272.074 164.621 271.455 164.087 270.818 163.537C269.637 162.538 268.439 161.558 267.223 160.603C263.088 157.347 263.088 157.347 262.126 153.499C262.052 152.001 262.015 150.5 262.001 148.999C261.952 147.933 261.903 146.867 261.852 145.769C261.551 135.515 261.551 135.515 265.001 130.999C266.968 129.155 268.913 127.443 271.001 125.749C271.854 125.043 271.854 125.043 272.724 124.322C274.477 122.874 276.238 121.436 278.001 119.999C279.102 119.095 280.202 118.19 281.302 117.285C283.862 115.182 286.428 113.087 289.001 110.999C288.069 109.08 287.13 107.164 286.188 105.249C285.666 104.182 285.144 103.115 284.606 102.015C283.239 99.4472 281.824 97.2548 280.001 94.9995C276.3 95.6352 273.027 96.671 269.544 98.0659C268.513 98.4687 267.483 98.8716 266.421 99.2866C264.275 100.133 262.131 100.988 259.991 101.849C247.411 106.732 247.411 106.732 241.014 104.219C238.968 103.186 237.059 102.042 235.126 100.812C234.463 100.425 233.801 100.037 233.118 99.6382C229.093 97.1635 227.465 95.6401 226.001 90.9995C225.529 88.6713 225.116 86.3306 224.747 83.9839C224.641 83.3274 224.535 82.671 224.426 81.9947C224.092 79.9138 223.764 77.8318 223.438 75.7495C223.108 73.653 222.776 71.5569 222.44 69.4615C222.136 67.5709 221.839 65.6792 221.542 63.7876C221.291 61.1028 221.291 61.1028 220.001 59.9995C218.658 59.9132 217.311 59.8924 215.966 59.9018C215.157 59.9051 214.348 59.9083 213.515 59.9116C212.664 59.92 211.814 59.9284 210.938 59.937C210.084 59.9415 209.23 59.946 208.351 59.9507C206.234 59.9625 204.117 59.9804 202.001 59.9995ZM306.001 102.999C306.991 105.309 307.981 107.619 309.001 109.999C309.646 113.953 309.369 115.429 307.188 118.812C303.756 122.549 299.696 125.621 295.72 128.753C292.999 131.001 290.496 133.504 288.001 135.999C300.541 135.999 313.081 135.999 326.001 135.999C326.001 125.109 326.001 114.219 326.001 102.999C319.401 102.999 312.801 102.999 306.001 102.999ZM29.0009 149.999C27.7707 153.198 27.7979 154.486 29.0634 157.687C31.5438 160.647 33.199 161.391 37.0009 161.999C40.5654 160.46 41.8294 159.257 44.0009 155.999C43.8513 152.483 43.3595 150.504 41.3134 147.624C36.4203 144.186 32.4038 145.336 29.0009 149.999ZM288.001 153.999C291.291 157.289 294.549 160.46 298.001 163.562C299.238 164.678 299.238 164.678 300.501 165.816C302.21 167.309 303.964 168.753 305.751 170.152C308.001 171.999 308.001 171.999 309.001 173.999C309.519 179.569 308.426 181.34 306.001 186.999C312.601 186.999 319.201 186.999 326.001 186.999C326.001 176.109 326.001 165.219 326.001 153.999C313.461 153.999 300.921 153.999 288.001 153.999ZM244.477 204.999C241.53 208.57 240.925 211.552 240.376 216.003C240.205 217.144 240.205 217.144 240.03 218.307C239.544 221.54 239.107 224.779 238.667 228.019C238.337 230.392 237.982 232.76 237.626 235.128C237.536 235.858 237.446 236.587 237.354 237.338C236.514 242.883 235.816 243.147 231.001 246.999C226.051 247.329 221.101 247.659 216.001 247.999C216.001 261.859 216.001 275.719 216.001 289.999C246.691 289.999 277.381 289.999 309.001 289.999C309.331 283.399 309.661 276.799 310.001 269.999C315.626 264.374 315.626 264.374 319.864 262.761C321.194 262.244 321.194 262.244 322.55 261.716C323.462 261.377 324.374 261.037 325.313 260.687C326.245 260.328 327.176 259.969 328.136 259.599C330.42 258.721 332.708 257.855 335.001 256.999C335.001 256.669 335.001 256.339 335.001 255.999C329.061 255.999 323.121 255.999 317.001 255.999C317.001 250.059 317.001 244.119 317.001 237.999C328.551 237.999 340.101 237.999 352.001 237.999C352.001 225.242 351.237 218.298 343.106 209.031C335.294 202.482 325.143 203.132 315.438 203.187C314.01 203.181 314.01 203.181 312.552 203.174C301.884 202.826 301.884 202.826 292.673 207.096C291.16 209.473 291.16 209.473 290.376 211.997C289.001 213.999 289.001 213.999 285.344 214.936C280.955 215.245 277.316 214.124 273.29 212.472C272.596 212.204 271.902 211.937 271.186 211.661C268.993 210.811 266.809 209.938 264.626 209.062C262.419 208.195 260.211 207.333 258.001 206.474C256.632 205.94 255.266 205.4 253.901 204.855C248.94 202.606 248.94 202.606 244.477 204.999ZM54.0009 252.999C53.1676 255.999 53.1676 255.999 54.0009 258.999C55.9176 262.083 55.9176 262.083 59.0009 263.999C62.5469 263.999 64.8627 263.72 67.8759 261.812C69.4939 259.205 69.8143 257.047 70.0009 253.999C69.1851 251.329 68.482 250.331 66.1884 248.749C60.3769 246.757 57.7194 248.112 54.0009 252.999ZM182.001 307.999C181.986 311.639 181.972 315.278 181.957 319.028C181.906 331.042 181.84 343.056 181.765 355.07C181.72 362.355 181.681 369.64 181.654 376.926C181.631 383.276 181.598 389.626 181.552 395.976C181.528 399.338 181.51 402.7 181.503 406.062C181.494 409.816 181.466 413.57 181.433 417.324C181.435 418.438 181.436 419.551 181.438 420.699C181.425 421.724 181.413 422.749 181.4 423.805C181.393 425.136 181.393 425.136 181.386 426.495C180.496 432.285 176.255 436.022 172.244 439.967C171.668 440.542 171.093 441.116 170.499 441.708C168.605 443.597 166.703 445.478 164.802 447.359C163.483 448.672 162.164 449.985 160.846 451.299C157.383 454.748 153.915 458.192 150.445 461.635C144.879 467.158 139.319 472.688 133.763 478.221C131.817 480.156 129.869 482.087 127.919 484.019C126.736 485.196 125.553 486.372 124.369 487.549C123.822 488.09 123.275 488.63 122.712 489.186C121.456 490.439 120.225 491.716 119.001 492.999C119.001 493.329 119.001 493.659 119.001 493.999C126.52 494.256 134.038 494.45 141.561 494.569C145.055 494.627 148.546 494.704 152.039 494.829C156.066 494.973 160.089 495.025 164.118 495.074C165.357 495.13 166.596 495.187 167.872 495.246C173.301 495.25 176.664 495.075 180.984 491.599C183.571 488.919 185.799 486.002 188.001 482.999C188.963 481.845 189.932 480.695 190.911 479.554C191.621 478.67 192.332 477.786 193.063 476.874C196.957 472.043 196.957 472.043 198.001 470.999C198.095 469.066 198.118 467.13 198.114 465.195C198.114 463.953 198.114 462.712 198.114 461.433C198.109 460.069 198.104 458.704 198.099 457.339C198.097 455.951 198.095 454.562 198.094 453.173C198.09 449.512 198.081 445.851 198.07 442.19C198.059 438.457 198.055 434.723 198.05 430.99C198.039 423.66 198.021 416.33 198.001 408.999C203.941 408.999 209.881 408.999 216.001 408.999C216.001 422.199 216.001 435.399 216.001 448.999C218.311 447.019 220.621 445.039 223.001 442.999C223.866 442.339 224.731 441.679 225.622 440.999C231.489 435.52 232.547 430.707 232.949 422.906C233.067 417.216 233.023 411.535 232.913 405.845C232.857 402.399 232.852 398.953 232.841 395.507C232.813 388.997 232.74 382.489 232.649 375.98C232.548 368.563 232.499 361.146 232.454 353.728C232.36 338.484 232.195 323.242 232.001 307.999C215.501 307.999 199.001 307.999 182.001 307.999ZM250.001 307.999C250.001 338.689 250.001 369.379 250.001 400.999C266.501 400.999 283.001 400.999 300.001 400.999C300.462 396.343 300.462 396.343 298.837 394.248C298.293 393.721 297.748 393.193 297.187 392.65C296.573 392.042 295.959 391.435 295.326 390.809C294.654 390.169 293.982 389.53 293.29 388.871C292.607 388.199 291.923 387.528 291.219 386.836C289.033 384.691 286.831 382.563 284.626 380.437C282.431 378.305 280.24 376.169 278.054 374.028C276.693 372.696 275.327 371.37 273.954 370.051C273.333 369.447 272.713 368.842 272.074 368.22C271.527 367.693 270.981 367.166 270.418 366.624C267.374 363.135 266.747 360.258 266.682 355.68C266.662 354.619 266.642 353.559 266.622 352.466C266.61 351.327 266.599 350.188 266.587 349.015C266.567 347.844 266.548 346.674 266.528 345.467C266.468 341.728 266.422 337.989 266.376 334.249C266.338 331.714 266.299 329.179 266.259 326.644C266.163 320.429 266.079 314.214 266.001 307.999C260.721 307.999 255.441 307.999 250.001 307.999ZM284.001 307.999C280.039 336.968 280.039 336.968 289.122 363.242C294.312 369.011 300.501 373.796 307.001 377.999C309.494 374.962 311.766 371.937 313.798 368.574C314.523 367.38 314.523 367.38 315.263 366.162C315.754 365.345 316.245 364.528 316.751 363.687C317.258 362.851 317.764 362.015 318.286 361.154C319.528 359.104 320.766 357.053 322.001 354.999C319.308 352.81 316.66 350.776 313.751 348.874C311.001 346.999 311.001 346.999 310.001 344.999C309.844 342.23 309.742 339.482 309.685 336.71C309.664 335.892 309.643 335.074 309.622 334.23C309.556 331.612 309.497 328.993 309.438 326.374C309.395 324.601 309.352 322.828 309.308 321.054C309.2 316.703 309.1 312.351 309.001 307.999C300.751 307.999 292.501 307.999 284.001 307.999ZM250.001 418.999C250.033 420.316 250.065 421.632 250.099 422.988C250.123 432.961 249.992 440.057 242.665 447.499C241.786 448.324 240.907 449.149 240.001 449.999C238.611 451.469 237.251 452.963 235.893 454.462C234.502 455.998 233.094 457.516 231.685 459.035C229.21 461.769 226.871 464.562 224.563 467.437C220.698 472.248 216.596 476.772 212.337 481.234C208.48 485.32 205.436 489.419 202.001 493.999C223.121 493.999 244.241 493.999 266.001 493.999C266.001 469.249 266.001 444.499 266.001 418.999C260.721 418.999 255.441 418.999 250.001 418.999ZM284.001 418.999C284.001 443.749 284.001 468.499 284.001 493.999C304.461 493.999 324.921 493.999 346.001 493.999C341.115 488.27 341.115 488.27 335.955 482.888C335.221 482.164 334.487 481.439 333.731 480.693C332.959 479.936 332.187 479.178 331.392 478.398C329.734 476.758 328.076 475.117 326.419 473.476C323.826 470.914 321.231 468.355 318.63 465.8C316.106 463.319 313.592 460.828 311.079 458.335C310.299 457.574 309.519 456.812 308.715 456.028C307.994 455.31 307.272 454.592 306.529 453.853C305.894 453.227 305.26 452.602 304.606 451.958C301.285 447.905 300.738 443.941 300.587 438.824C300.548 437.667 300.51 436.51 300.47 435.318C300.439 434.12 300.408 432.921 300.376 431.687C300.337 430.469 300.299 429.252 300.259 427.998C300.165 424.998 300.082 421.999 300.001 418.999C294.721 418.999 289.441 418.999 284.001 418.999Z" fill="black"/>
<path d="M236.402 120.317C242.95 127.217 245.387 135.573 246.437 144.875C245.948 154.802 242.075 164.065 234.999 171C227.936 177.075 218.669 180.81 209.222 180.344C198.73 178.721 189.948 175.123 183.187 166.758C177.06 158.01 174.842 148.41 176.687 137.813C179.057 127.793 184.036 120.864 192.702 115.356C207.087 106.867 224.149 109.124 236.402 120.317ZM196.562 136.125C194.336 140.616 194.228 145.107 194.999 150C196.791 155.296 200.031 158.516 204.999 161C209.345 162.284 212.328 162.205 216.687 160.875C222.718 157.461 225.965 153.67 227.999 147C227.999 140.671 226.436 136.558 221.999 132C213.363 125.774 202.858 128.053 196.562 136.125Z" fill="black"/>
<path d="M442 171C444.185 172.574 444.185 172.574 446 175C446.398 177.702 446.562 179.989 446.531 182.688C446.535 183.427 446.539 184.167 446.543 184.929C446.545 186.489 446.538 188.049 446.521 189.609C446.5 191.993 446.521 194.374 446.547 196.758C446.544 198.276 446.539 199.795 446.531 201.313C446.539 202.023 446.547 202.734 446.556 203.466C446.491 206.899 446.247 208.688 444.092 211.418C439.032 215.245 433.028 214.299 426.934 214.35C425.485 214.367 424.036 214.394 422.587 214.432C420.49 214.487 418.395 214.509 416.297 214.524C414.415 214.553 414.415 214.553 412.495 214.584C407.874 213.812 406.28 212.286 403 209C402.238 206.938 402.238 206.938 402.312 205C402.308 204.361 402.305 203.722 402.301 203.063C403.481 199.58 405.033 198.171 408 196C411.461 195.399 414.813 195.527 418.312 195.688C419.244 195.71 420.175 195.733 421.135 195.756C423.425 195.815 425.711 195.897 428 196C427.948 194.156 427.948 194.156 427.894 192.274C427.866 190.641 427.839 189.008 427.812 187.375C427.787 186.567 427.762 185.759 427.736 184.926C427.674 179.84 428.182 176.416 431 172C434.482 169.14 437.821 169.956 442 171Z" fill="black"/>
<path d="M360 85C365.94 85 371.88 85 378 85C378 96.55 378 108.1 378 120C372.06 120 366.12 120 360 120C360 108.45 360 96.9 360 85Z" fill="black"/>
<path d="M198 375C203.94 375 209.88 375 216 375C216 380.94 216 386.88 216 393C210.06 393 204.12 393 198 393C198 387.06 198 381.12 198 375Z" fill="black"/>
<path d="M198 341C203.94 341 209.88 341 216 341C216 346.94 216 352.88 216 359C210.06 359 204.12 359 198 359C198 353.06 198 347.12 198 341Z" fill="black"/>
<path d="M283 238C288.94 238 294.88 238 301 238C301 243.94 301 249.88 301 256C295.06 256 289.12 256 283 256C283 250.06 283 244.12 283 238Z" fill="black"/>
<path d="M249 238C254.94 238 260.88 238 267 238C267 243.94 267 249.88 267 256C261.06 256 255.12 256 249 256C249 250.06 249 244.12 249 238Z" fill="black"/>
<path d="M360 170C365.94 170 371.88 170 378 170C378 175.94 378 181.88 378 188C372.06 188 366.12 188 360 188C360 182.06 360 176.12 360 170Z" fill="black"/>
<path d="M360 136C365.94 136 371.88 136 378 136C378 141.94 378 147.88 378 154C372.06 154 366.12 154 360 154C360 148.06 360 142.12 360 136Z" fill="black"/>
</g>
<defs>
<clipPath id="clip0_58_536">
<rect width="512" height="512" fill="white"/>
</clipPath>
</defs>
</svg>
